<?xml version="1.0" encoding="UTF-8" standalone="no"?><svg xmlns:svg="http://www.w3.org/2000/svg" xmlns="http://www.w3.org/2000/svg" xmlns:xlink="http://www.w3.org/1999/xlink" version="1.0" width="256px" height="256px" viewBox="0 0 128 128" xml:space="preserve"><g><path d="M78.75 16.18V1.56a64.1 64.1 0 0 1 47.7 47.7H111.8a49.98 49.98 0 0 0-33.07-33.08zM16.43 49.25H1.8a64.1 64.1 0 0 1 47.7-47.7V16.2a49.98 49.98 0 0 0-33.07 33.07zm33.07 62.32v14.62A64.1 64.1 0 0 1 1.8 78.5h14.63a49.98 49.98 0 0 0 33.07 33.07zm62.32-33.07h14.62a64.1 64.1 0 0 1-47.7 47.7v-14.63a49.98 49.98 0 0 0 33.08-33.07z" fill="#ffffff" fill-opacity="1"/><animateTransform attributeName="transform" type="rotate" from="-90 64 64" to="0 64 64" dur="800ms" repeatCount="indefinite"></animateTransform></g></svg>